<svg viewBox="0 0 162.52 32" xmlns="http://www.w3.org/2000/svg" xmlns:xlink="http://www.w3.org/1999/xlink" width="162.519531" height="32.000000" fill="none" customFrame="#000000">
	<g id="Client Logo">
		<g id="Group 1321314839">
			<path id="Vector" d="M18.8522 6.0132L9.42611 12.0264L18.8522 18.0396L9.42611 24.0528L0 18.0071L9.42611 11.9939L0 6.0132L9.42611 0L18.8522 6.0132ZM9.37735 25.9868L18.8035 19.9736L28.2296 25.9868L18.8035 32L9.37735 25.9868ZM18.8522 18.0071L28.2783 11.9939L18.8522 6.0132L28.2296 0L37.6557 6.0132L28.2296 12.0264L37.6557 18.0396L28.2296 24.0528L18.8522 18.0071Z" fill="rgb(9,15,31)" fill-rule="evenodd" />
			<path id="Vector" d="M45.0508 6.01456L52.6729 6.01456C57.5322 6.01456 61.5465 8.82614 61.5465 15.2456L61.5465 16.5945C61.5465 23.0628 57.7923 25.9719 52.8192 25.9719L45.0508 25.9719L45.0508 6.01456ZM49.3088 9.63873L49.3088 22.3315L52.5754 22.3315C55.3382 22.3315 57.191 20.5275 57.191 16.5133L57.191 15.4569C57.191 11.4427 55.2407 9.63873 52.4291 9.63873L49.3088 9.63873ZM63.8055 9.83376L67.2184 9.83376L67.7709 13.5879C68.421 11.0364 70.0787 9.67124 73.0853 9.67124L74.1417 9.67124L74.1417 13.978L72.3865 13.978C68.9248 13.978 68.0797 15.1806 68.0797 18.5935L68.0797 26.0207L63.8705 26.0207L63.8705 9.83376L63.8055 9.83376ZM74.9868 18.2522L74.9868 17.7972C74.9868 12.3853 78.4484 9.42746 83.1615 9.42746C87.9721 9.42746 91.3362 12.3853 91.3362 17.7972L91.3362 18.2522C91.3362 23.5666 88.0696 26.427 83.1615 26.427C77.9446 26.3782 74.9868 23.5829 74.9868 18.2522ZM87.0294 18.2035L87.0294 17.7972C87.0294 14.7906 85.518 12.9866 83.1127 12.9866C80.7562 12.9866 79.196 14.6443 79.196 17.7972L79.196 18.2035C79.196 21.1126 80.7075 22.7703 83.1127 22.7703C85.518 22.7215 87.0294 21.1126 87.0294 18.2035ZM93.5465 9.83376L97.0569 9.83376L97.4632 12.8891C98.3083 10.8414 100.112 9.42746 102.778 9.42746C106.889 9.42746 109.603 12.3853 109.603 17.8622L109.603 18.3173C109.603 23.6316 106.597 26.4432 102.778 26.4432C100.226 26.4432 98.4708 25.2893 97.6094 23.4366L97.6094 31.6113L93.4977 31.6113L93.5465 9.83376ZM105.329 18.2035L105.329 17.8459C105.329 14.6281 103.671 13.0354 101.461 13.0354C99.1046 13.0354 97.5444 14.8393 97.5444 17.8459L97.5444 18.1547C97.5444 21.0151 99.0559 22.819 101.412 22.819C103.834 22.7703 105.329 21.2263 105.329 18.2035ZM115.828 23.0303L115.47 25.9881L111.862 25.9881L111.862 4.42188L115.974 4.42188L115.974 12.6941C116.884 10.5813 118.688 9.42746 121.24 9.42746C125.108 9.47622 127.968 12.1415 127.968 17.5047L127.968 18.0085C127.968 23.3716 125.254 26.4432 121.142 26.4432C118.428 26.3782 116.673 25.1268 115.828 23.0303ZM123.645 18.0085L123.645 17.6022C123.645 14.6443 122.036 12.9866 119.777 12.9866C117.469 12.9866 115.86 14.8393 115.86 17.6509L115.86 18.0085C115.86 21.0151 117.421 22.7703 119.728 22.7703C122.199 22.7703 123.645 21.2263 123.645 18.0085ZM129.772 18.2522L129.772 17.7972C129.772 12.3853 133.234 9.42746 137.947 9.42746C142.757 9.42746 146.121 12.3853 146.121 17.7972L146.121 18.2522C146.121 23.5666 142.806 26.427 137.947 26.427C132.73 26.3782 129.772 23.5829 129.772 18.2522ZM141.847 18.2035L141.847 17.7972C141.847 14.7906 140.336 12.9866 137.93 12.9866C135.574 12.9866 134.014 14.6443 134.014 17.7972L134.014 18.2035C134.014 21.1126 135.525 22.7703 137.93 22.7703C140.352 22.7215 141.847 21.1126 141.847 18.2035ZM151.631 17.6022L145.959 9.83376L150.818 9.83376L154.085 14.6931L157.4 9.83376L162.211 9.83376L156.458 17.5534L162.52 25.9881L157.758 25.9881L154.052 20.625L150.444 25.9881L145.471 25.9881L151.631 17.6022Z" fill="rgb(9,15,31)" fill-rule="nonzero" />
		</g>
	</g>
</svg>
