<svg viewBox="0 0 165 40" xmlns="http://www.w3.org/2000/svg" xmlns:xlink="http://www.w3.org/1999/xlink" width="165.000000" height="40.000000" fill="none" customFrame="#000000">
	<defs>
		<clipPath id="clipPath_0">
			<rect width="165.000000" height="40.000000" x="0.000000" y="0.000000" fill="rgb(255,255,255)" />
		</clipPath>
	</defs>
	<g id="04">
		<g id="Client Logo">
			<g id="Group 1321314842">
				<g id="Press logo" clip-path="url(#clipPath_0)" customFrame="url(#clipPath_0)">
					<rect id="Press logo" width="165.000000" height="40.000000" x="0.000000" y="0.000000" fill="rgb(255,255,255)" fill-opacity="0" />
					<path id="Vector" d="M11.7474 31.2239C8.33521 31.2239 5.2616 29.8652 3.04756 27.4092C1.12004 25.2668 0 22.4189 0 19.5971C0 10.7921 7.29331 7.5 11.9037 7.5C16.436 7.5 19.744 9.72085 19.9003 9.82536C20.5366 10.2672 20.8868 10.9756 20.8868 11.7001C20.8868 12.1323 20.7622 12.5702 20.4994 12.9607C19.8222 14.0058 18.4417 14.267 17.4258 13.5877C17.3737 13.5616 15.0034 12.0201 11.9037 12.0201C9.01245 12.0201 5.02717 13.9274 5.02717 19.5971C5.02717 22.8108 7.42355 26.6254 11.7995 26.6254C14.274 26.6254 15.9932 25.9722 17.009 25.319L17.009 21.9747L13.6229 21.9747C12.3986 21.9747 11.4088 20.9557 11.4088 19.7277C11.4088 18.4736 12.3986 17.4807 13.6229 17.4807L19.2752 17.4807C20.4994 17.4807 21.4892 18.4997 21.4892 19.7277L21.4892 26.4425C21.4892 27.0434 21.2548 27.6444 20.812 28.0624C19.3273 29.5256 16.0453 31.2239 11.7474 31.2239ZM27.0113 28.4021L27.0113 10.3218C27.0113 9.38119 27.2197 8.67574 27.6625 8.20545C28.0793 7.73515 28.6523 7.5 29.3296 7.5C30.0328 7.5 30.6059 7.73515 31.0226 8.20545C31.4655 8.67574 31.6738 9.38119 31.6738 10.3218L31.6738 28.4021C31.6738 29.3427 31.4655 30.0743 31.0226 30.5446C30.5798 31.0149 30.0328 31.25 29.3296 31.25C28.6523 31.25 28.1053 31.0149 27.6886 30.5446C27.2458 30.0481 27.0113 29.3427 27.0113 28.4021ZM99.9965 31.2239C93.4846 31.2239 88.1709 25.8938 88.1709 19.3619C88.1709 12.83 93.4846 7.5 99.9965 7.5C106.508 7.5 111.822 12.83 111.822 19.3619C111.822 25.92 106.508 31.2239 99.9965 31.2239ZM135.161 12.3597C136.593 14.3193 137.453 16.7492 137.453 19.3619C137.453 21.9747 136.593 24.4046 135.161 26.3903C133.051 29.2643 129.743 31.1455 125.966 31.25L119.662 31.25C118.672 31.25 117.917 31.0149 117.474 30.5446C117.031 30.0743 116.797 29.3427 116.797 28.2976L116.797 10.4524C116.797 9.40732 117.031 8.67574 117.474 8.20545Q118.139 7.5 119.662 7.5L125.966 7.5C129.743 7.63064 133.077 9.51183 135.161 12.3597ZM153.055 31.2239C146.543 31.2239 141.23 25.8938 141.23 19.3619C141.23 12.83 146.543 7.5 153.055 7.5C159.567 7.5 164.881 12.83 164.881 19.3619C164.881 25.92 159.593 31.2239 153.055 31.2239ZM79.1844 8.44053C79.6793 7.68283 80.617 7.34317 81.4766 7.60445C82.2709 7.8459 82.8428 8.57823 82.8428 9.40966C82.8428 9.47794 82.839 9.54688 82.8311 9.61627L82.8311 28.9768C82.8311 30.1526 81.8934 31.0932 80.7733 31.0932C79.6272 31.0932 78.7156 30.1264 78.7156 28.9768L78.7156 16.514L73.6624 24.2477L73.6624 24.2739L73.6363 24.3C73.6103 24.3522 73.5582 24.3784 73.5321 24.4306L73.48 24.4829C73.454 24.5351 73.4279 24.5613 73.4019 24.5874L73.3238 24.6658C73.3238 24.6919 73.2977 24.6919 73.2717 24.718C73.2196 24.7703 73.1935 24.7964 73.1414 24.8225L73.1154 24.8487C73.0893 24.8748 73.0372 24.9009 72.9851 24.927L72.9591 24.9532C72.933 24.9793 72.8809 24.9793 72.8549 25.0054C72.6465 25.1099 72.4121 25.1622 72.2037 25.1883L71.7869 25.1883C71.5525 25.1622 71.3441 25.1099 71.1358 25.0054C71.1097 24.9793 71.0576 24.9793 71.0316 24.9532C71.0316 24.9532 71.0316 24.927 71.0055 24.927C70.9795 24.9009 70.9274 24.8748 70.8753 24.8487L70.8492 24.8225C70.7971 24.7703 70.7711 24.7442 70.719 24.718C70.719 24.6919 70.6929 24.6919 70.6669 24.6658L70.5888 24.5874C70.5627 24.5613 70.5367 24.509 70.5106 24.4829L70.4585 24.4306C70.4064 24.4045 70.3804 24.3522 70.3543 24.3C70.3283 24.3 70.3283 24.2739 70.3283 24.2739L70.3283 24.2477L65.2751 16.514L65.2751 28.9768C65.2751 30.1526 64.3374 31.0932 63.2173 31.0932C62.0712 31.0932 61.1596 30.1264 61.1596 28.9768L61.1596 9.61627C61.1596 8.70181 61.7587 7.86572 62.6182 7.60445C63.4778 7.34317 64.4155 7.68283 64.9104 8.44053L72.0474 19.3357L79.1844 8.44053ZM54.1788 30.5184L38.8369 30.5184C38.0294 30.5184 37.1438 30.022 36.8052 29.2382C36.6576 28.8967 36.5645 28.5007 36.5645 28.0912C36.5645 27.5607 36.7208 27.0075 37.1177 26.5209L49.6466 11.9156L39.2797 11.9156C38.1596 11.9156 37.2219 10.9227 37.2219 9.72085C37.2219 8.51898 38.1336 7.76128 39.2797 7.76128L53.2411 7.76128C54.0486 7.76128 54.8821 7.89191 55.6115 8.70187C55.9313 9.04736 56.0885 9.58513 56.0885 10.1556C56.0885 10.7931 55.8922 11.4714 55.5073 11.9678L43.3952 26.129L54.1788 26.129C55.3249 26.129 56.1324 27.1218 56.1324 28.3237C56.1324 29.5256 55.3249 30.5184 54.1788 30.5184ZM99.9965 12.3075C96.1154 12.3075 92.9636 15.4689 92.9636 19.3619C92.9636 23.2549 96.1154 26.4164 99.9965 26.4164C103.878 26.4164 107.029 23.2549 107.029 19.3619C107.029 15.495 103.878 12.3075 99.9965 12.3075ZM153.055 12.3075C149.174 12.3075 146.023 15.4689 146.023 19.3619C146.023 23.2549 149.174 26.4164 153.055 26.4164C156.936 26.4164 160.088 23.2549 160.088 19.3619C160.088 15.495 156.936 12.3075 153.055 12.3075ZM124.611 26.4164C125.263 26.4164 125.888 26.3903 126.461 26.3641C128.518 26.129 130.29 25.0055 131.41 23.3333C132.191 22.2098 132.66 20.8512 132.66 19.3619C132.66 17.8727 132.191 16.4879 131.41 15.3644C130.29 13.7445 128.518 12.5949 126.461 12.3597C125.888 12.3075 125.263 12.3075 124.611 12.3075L121.512 12.3075L121.512 26.4164L124.611 26.4164Z" fill="rgb(9,15,31)" fill-rule="evenodd" />
				</g>
			</g>
		</g>
	</g>
</svg>
